<svg width="18" height="17" viewBox="0 0 18 17" fill="none" xmlns="http://www.w3.org/2000/svg">
<path d="M9.45021 4.37128C9.30638 4.86198 9.06889 5.30726 8.83072 5.75809C8.55956 6.27136 8.07625 6.95638 8.18307 7.57785C8.24876 7.96009 8.63968 8.12979 8.98559 8.15862C9.24592 8.18031 10.0088 7.99987 9.76699 8.09878C8.48419 8.62357 7.477 9.50698 6.63786 10.5979C6.30488 11.0307 7.36874 10.3609 7.41574 10.3339C8.33511 9.80477 9.2341 9.21216 10.0627 8.54932C10.1374 8.4895 11.6596 7.12093 11.5339 7.04635C11.2158 6.85743 10.1475 8.11237 10.0028 8.28181C9.72857 8.60308 9.58898 8.80225 9.35869 9.14769C9.31872 9.20765 8.95162 9.6738 8.97855 9.81294C9.00221 9.93518 9.67444 9.03556 9.69308 8.99634C10.3628 7.5871 9.87516 5.00837 7.96836 5.00837C6.9049 5.00837 6.00172 5.80442 5.76142 6.82108C5.59017 7.54563 5.67062 8.42294 6.56394 8.45429C7.91486 8.50169 9.13913 7.58872 9.29533 6.22975C9.40301 5.29298 9.26257 4.39587 8.41538 3.8785C7.4202 3.27076 6.18647 3.33818 5.24048 4.04041C4.2238 4.79513 3.45108 7.62295 5.35312 7.68696C6.60852 7.72921 8.00141 6.64917 7.38758 5.25828C6.97779 4.3297 5.61879 3.94144 4.70195 4.16713C4.06309 4.32438 2.71114 5.35558 3.11451 6.18751C3.34934 6.67185 3.92432 6.35191 4.08246 6.02208C4.3201 5.52643 4.40489 4.90767 4.35349 4.36424C4.29706 3.76776 4.09401 3.05422 3.53689 2.73455C3.28341 2.58912 2.99396 2.59879 2.98779 2.93519C2.97088 3.857 3.50336 5.2114 4.65619 4.67398C5.00783 4.51006 5.18955 4.19206 5.30384 3.83626C5.32914 3.75751 5.56719 3.07848 5.2968 3.14286C5.25785 3.15213 5.03302 3.31311 5.05745 3.31533C5.21212 3.32939 5.43191 2.79079 5.47279 2.68176C5.57352 2.41316 5.51357 2.15663 5.17009 2.2277C4.7442 2.31581 4.54634 3.10199 4.38165 3.46668C4.1412 3.99909 3.84996 4.48712 3.62136 5.02597C3.40861 5.52744 3.07458 5.48053 2.58653 5.32163C2.40479 5.26246 2.01307 5.08208 1.82273 5.23012C1.7539 5.28365 1.7741 5.46577 1.75585 5.53986C1.68651 5.82131 1.60614 6.06131 1.59746 6.35646C1.57992 6.95269 1.51934 7.97559 2.37182 7.97559C2.67345 7.97559 2.60937 7.44698 2.60765 7.2505C2.60353 6.78116 2.47081 7.71636 2.47742 7.78904C2.68566 10.0797 4.80717 11.4704 6.83849 12.0234C6.91615 12.0445 8.16147 12.4204 8.26754 12.2487C8.41187 12.015 7.37969 11.1973 7.24679 11.0836C6.87677 10.767 6.4525 10.5728 6.05709 10.2987C5.62476 9.999 5.80767 10.6566 5.85998 10.9182C6.08508 12.0437 6.87173 12.7458 7.9578 13.0653C8.30423 13.1672 9.03792 12.8878 9.1299 13.3293C9.20435 13.6866 9.17106 14.3656 9.38685 14.6738C9.45801 14.7755 9.69434 14.2663 9.33757 14.3465C8.91101 14.4423 8.50841 14.6328 8.14787 14.878C7.71657 15.1713 8.07482 14.7893 8.2253 14.5999C9.3713 13.1575 10.208 11.4331 11.5128 10.1227C11.9755 9.65807 12.4937 9.242 13.0792 8.94354C13.3508 8.80506 13.4922 8.80159 13.3572 9.14417C13.0988 9.80011 12.8168 10.4269 12.6709 11.1223C12.6678 11.1369 12.5702 11.7773 12.6462 11.4039C12.7956 10.6707 13.0049 9.95178 13.1672 9.22161C13.2165 8.99953 13.3273 8.4131 12.9771 8.87667C12.4929 9.51766 12.1075 10.2585 11.7205 10.9604C11.5686 11.2359 11.4316 11.6502 11.189 11.8685C11.0368 12.0055 10.4724 12.9118 11.013 12.664C12.2654 12.09 13.014 10.7678 13.7514 9.66159C14.0087 9.27563 14.1716 8.83184 14.4378 8.44725C14.9512 7.70575 15.3353 7.09705 15.1735 6.16991C14.9234 4.73755 12.8529 3.91134 11.5832 4.38536C11.1627 4.54235 10.8128 4.81945 10.5414 5.1738C10.4939 5.23572 10.0978 5.92026 10.1929 5.46595C10.2873 5.01474 10.6341 4.38003 10.9391 4.02985C11.1111 3.83241 11.4196 3.61869 11.4143 3.32941C11.4128 3.25041 11.2945 2.85383 11.3685 2.83311C11.7583 2.72397 12.248 2.80238 12.6533 2.74511C12.8809 2.71295 13.5261 2.44979 13.7444 2.5832C13.9163 2.68823 13.8218 3.26774 13.8218 3.42092C13.8218 3.94392 13.9601 4.67695 13.7303 5.1738C13.6334 5.38341 13.0908 6.32006 12.8081 5.93408C12.5638 5.60054 12.4519 5.14428 12.2766 4.77254C12.1981 4.60602 12.0531 4.40978 12.0478 4.2164C12.0422 4.0066 12.1531 3.5418 11.8648 3.49836C11.2499 3.4057 9.37745 3.48428 9.9993 3.48428C10.6382 3.48428 11.2756 3.35014 11.9071 3.35757C12.6307 3.36608 13.3858 4.12699 13.9908 4.46983C14.524 4.77198 15.0192 5.15859 15.3917 5.6525C15.5404 5.84965 15.5325 5.86661 15.5325 5.5821C15.5325 5.20482 15.5419 4.81869 15.455 4.44871C15.4367 4.37051 14.9881 3.47889 14.9623 3.81514C14.9368 4.14578 15.2295 4.25749 15.3283 4.54023C15.5215 5.09308 15.7063 5.7838 15.7226 6.37054C15.7326 6.73215 15.746 6.14747 15.7226 6.01856" stroke="white" stroke-width="3" stroke-linecap="round"/>
</svg>
