<svg width="24" height="17" viewBox="0 0 24 17" fill="none" xmlns="http://www.w3.org/2000/svg">
<path d="M23.3879 16.4386C22.5518 17.0695 19.1505 17.2572 18.3273 16.5367C17.8757 16.1417 17.4627 15.6472 17.0703 15.177C16.7964 14.8478 16.4847 14.688 16.2491 14.3309C16.0572 14.0384 15.9252 13.6937 15.7224 13.406C15.3806 12.9218 14.8539 12.5102 14.437 13.1015C13.81 13.9906 14.5359 15.7385 13.6995 16.4032C13.4189 16.6263 13.136 16.6909 12.7856 16.659L12.0094 16.7017C11.5531 16.7124 10.8309 16.7172 10.3124 16.6044C9.73339 16.4789 9.25595 16.0979 8.73318 15.8182C7.73993 15.2877 6.79332 14.5649 6.07336 13.5634C4.11397 10.8364 1.48194 7.08568 0.459565 3.65693C0.248803 2.95237 -0.306058 1.55799 0.220349 0.953458C0.936342 0.327006 4.45179 0.14967 4.9997 1.11924C5.2227 1.51256 5.36299 2.09 5.52048 2.53593C5.71635 3.09224 5.82289 3.61708 6.12927 4.10963C6.40058 4.5468 6.60109 4.98595 6.81119 5.46535C7.04709 6.00294 7.26943 6.51861 7.5563 7.01395C7.75084 7.35069 8.26534 8.01978 8.59025 8.06999C9.38366 8.19234 9.33403 5.86984 9.27514 5.30236C9.21889 4.75601 9.204 4.17658 9.21889 3.62226C9.2318 3.14963 9.2672 2.48372 9.0346 2.09757C8.65576 1.46793 7.81205 1.93936 7.74588 1.09333C7.88551 0.853035 7.85573 0.639834 8.78678 0.270817C9.51965 -0.0196948 9.99312 -0.0105295 10.4765 0.0360958C11.4625 0.131339 12.5077 -0.190256 13.4589 0.194702C14.3675 0.563321 14.2272 2.11869 14.1968 3.0512C14.1561 4.32443 14.1994 5.56657 14.1968 6.85813C14.1954 7.44673 14.1762 8.01859 14.7711 7.97116C15.3296 7.92613 15.3862 7.36065 15.6526 6.8936C16.0235 6.24284 16.3633 5.58331 16.7408 4.93454C17.2493 4.05823 17.4025 3.07352 17.8813 2.17568C18.0527 1.85408 18.1999 1.15231 18.4636 0.898464C18.6634 0.706783 19.0426 0.788875 19.2841 0.788875H19.8585C20.2986 0.795251 20.7472 0.802823 21.1989 0.821951C21.8497 0.84905 22.5786 0.678887 23.2241 0.788477C26.0087 1.2619 19.7242 8.43622 20.0511 9.71622C20.2774 10.6001 21.7107 11.5904 22.2282 12.3149C22.918 13.2785 25.0326 15.1989 23.3879 16.4386Z" fill="white"/>
</svg>
